<mxfile host="Electron" modified="2022-11-24T11:25:26.685Z" agent="5.0 (Macintosh; Intel Mac OS X 10_15_7) AppleWebKit/537.36 (KHTML, like Gecko) draw.io/20.3.0 Chrome/104.0.5112.114 Electron/20.1.3 Safari/537.36" etag="_J0h3ODsNjeuyE6Od6cD" compressed="false" version="20.3.0" type="device">
  <diagram name="4 Tier Design" id="lptEz-B2BHvfUTlyXeJj">
    <mxGraphModel dx="1259" dy="1894" grid="1" gridSize="10" guides="1" tooltips="1" connect="1" arrows="1" fold="1" page="1" pageScale="1" pageWidth="827" pageHeight="1169" math="0" shadow="0">
      <root>
        <mxCell id="pj1l9u-Ld7OoOsmG_GXO-0" />
        <mxCell id="pj1l9u-Ld7OoOsmG_GXO-1" value="Titles Block" style="" parent="pj1l9u-Ld7OoOsmG_GXO-0" />
        <mxCell id="pj1l9u-Ld7OoOsmG_GXO-2" value="" style="group;dropTarget=0;" parent="pj1l9u-Ld7OoOsmG_GXO-1" vertex="1">
          <mxGeometry x="430" y="-840" width="641" height="89" as="geometry" />
        </mxCell>
        <UserObject AWS_Account_ID="" label="VPC Example layout" placeholders="1" id="pj1l9u-Ld7OoOsmG_GXO-3">
          <mxCell style="html=1;overflow=block;blockSpacing=1;whiteSpace=wrap;;whiteSpace=wrap;fontSize=19.7;fontColor=#b2b2b2;fontStyle=1;align=center;spacingLeft=7;spacingRight=7;spacingTop=2;spacing=3;strokeOpacity=0;fillOpacity=0;rounded=1;absoluteArcSize=1;arcSize=12;fillColor=#ffffff;strokeWidth=1.5;" parent="pj1l9u-Ld7OoOsmG_GXO-2" vertex="1">
            <mxGeometry width="641" height="30" as="geometry" />
          </mxCell>
        </UserObject>
        <UserObject AWS_Account_ID="" label="" placeholders="1" id="pj1l9u-Ld7OoOsmG_GXO-4">
          <mxCell style="html=1;overflow=block;blockSpacing=1;whiteSpace=wrap;;whiteSpace=wrap;fontSize=11.5;fontColor=#b2b2b2;align=center;spacingLeft=7;spacingRight=7;spacingTop=2;spacing=3;strokeOpacity=0;fillOpacity=0;rounded=1;absoluteArcSize=1;arcSize=12;fillColor=#ffffff;strokeWidth=1.5;" parent="pj1l9u-Ld7OoOsmG_GXO-2" vertex="1">
            <mxGeometry y="45" width="641" height="44" as="geometry" />
          </mxCell>
        </UserObject>
        <UserObject label="%page%" placeholders="1" id="pj1l9u-Ld7OoOsmG_GXO-5">
          <mxCell style="html=1;overflow=block;blockSpacing=1;whiteSpace=wrap;strokeColor=none;fillColor=none;whiteSpace=wrap;fontSize=13;fontColor=#b2b2b2;spacing=3.8;strokeOpacity=100;fillOpacity=100;strokeWidth=0.8;" parent="pj1l9u-Ld7OoOsmG_GXO-2" vertex="1">
            <mxGeometry x="171.77" y="20" width="297.46" height="41" as="geometry" />
          </mxCell>
        </UserObject>
        <UserObject label="" id="pj1l9u-Ld7OoOsmG_GXO-6">
          <mxCell style="html=1;jettySize=18;whiteSpace=wrap;fontSize=13;fontFamily=Helvetica;strokeColor=#b2b2b2;strokeOpacity=100;strokeWidth=2;rounded=0;startArrow=none;;endArrow=none;;endSize=10;startSize=10;" parent="pj1l9u-Ld7OoOsmG_GXO-2" edge="1">
            <mxGeometry width="100" height="100" relative="1" as="geometry">
              <Array as="points" />
              <mxPoint x="150.00187500000004" y="50" as="sourcePoint" />
              <mxPoint x="486.4628124999999" y="50" as="targetPoint" />
            </mxGeometry>
          </mxCell>
        </UserObject>
        <mxCell id="pj1l9u-Ld7OoOsmG_GXO-7" value="Region" style="locked=1;" parent="pj1l9u-Ld7OoOsmG_GXO-0" />
        <mxCell id="pj1l9u-Ld7OoOsmG_GXO-8" value="" style="html=1;overflow=block;blockSpacing=1;whiteSpace=wrap;whiteSpace=wrap;fontSize=13.3;fontColor=#333333;fontStyle=1;spacing=0;strokeColor=#232f3e;strokeOpacity=100;fillOpacity=0;fillColor=#000000;strokeWidth=1.5;" parent="pj1l9u-Ld7OoOsmG_GXO-7" vertex="1">
          <mxGeometry x="14" y="-744" width="1526" height="833" as="geometry" />
        </mxCell>
        <UserObject AWS_Account_ID="" label="AWS Cloud" id="pj1l9u-Ld7OoOsmG_GXO-9">
          <mxCell style="html=1;overflow=block;blockSpacing=1;whiteSpace=wrap;shape=mxgraph.aws4.group;grIcon=mxgraph.aws4.group_aws_cloud_alt;verticalAlign=top;align=left;spacingLeft=30;fillOpacity=100;fillColor=none;whiteSpace=wrap;fontSize=13.3;fontColor=#333333;fontStyle=1;spacing=0;strokeColor=#232f3e;strokeOpacity=100;strokeWidth=1.5;part=1;" parent="pj1l9u-Ld7OoOsmG_GXO-8" vertex="1">
            <mxGeometry width="1526" height="833" as="geometry" />
          </mxCell>
        </UserObject>
        <mxCell id="pj1l9u-Ld7OoOsmG_GXO-10" value="" style="html=1;overflow=block;blockSpacing=1;whiteSpace=wrap;whiteSpace=wrap;fontSize=13;fontColor=#147eba;spacing=0;strokeColor=#147eba;strokeOpacity=100;fillOpacity=0;fillColor=#ffffff;dashed=1;fixDash=1;dashPattern=6 5;strokeWidth=1.5;container=0;" parent="pj1l9u-Ld7OoOsmG_GXO-7" vertex="1">
          <mxGeometry x="81" y="-706" width="1449" height="782" as="geometry" />
        </mxCell>
        <UserObject AWS_Account_ID="" label="" id="pj1l9u-Ld7OoOsmG_GXO-11">
          <mxCell style="html=1;overflow=block;blockSpacing=1;whiteSpace=wrap;;whiteSpace=wrap;fontSize=13;align=center;spacing=3.8;strokeOpacity=0;fillOpacity=0;fillColor=#ffffff;strokeWidth=1.5;" parent="pj1l9u-Ld7OoOsmG_GXO-7" vertex="1">
            <mxGeometry x="1741" y="833" width="239" height="39" as="geometry" />
          </mxCell>
        </UserObject>
        <UserObject AWS_Account_ID="" label="Region (eu-west-1)" Region="eu-west-1" Type="Region" id="pj1l9u-Ld7OoOsmG_GXO-12">
          <mxCell style="html=1;overflow=block;blockSpacing=1;whiteSpace=wrap;shape=mxgraph.aws4.group;grIcon=mxgraph.aws4.group_region;verticalAlign=top;align=left;spacingLeft=30;fillOpacity=100;dashed=1;fontColor=#0E82B8;fillColor=none;whiteSpace=wrap;fontSize=13;spacing=0;strokeColor=#147eba;strokeOpacity=100;strokeWidth=1.5;part=1;" parent="pj1l9u-Ld7OoOsmG_GXO-7" vertex="1">
            <mxGeometry x="91" y="-700" width="1430" height="770" as="geometry" />
          </mxCell>
        </UserObject>
        <mxCell id="pj1l9u-Ld7OoOsmG_GXO-17" value="VPC" style="locked=1;" parent="pj1l9u-Ld7OoOsmG_GXO-0" />
        <object label="" Region="eu-west-1" VPC_ID="" id="pj1l9u-Ld7OoOsmG_GXO-18">
          <mxCell style="group;dropTarget=0;" parent="pj1l9u-Ld7OoOsmG_GXO-17" vertex="1">
            <mxGeometry x="170" y="-640" width="1260" height="705" as="geometry" />
          </mxCell>
        </object>
        <mxCell id="pj1l9u-Ld7OoOsmG_GXO-19" value="" style="html=1;overflow=block;blockSpacing=1;whiteSpace=wrap;whiteSpace=wrap;fontSize=13.3;fontColor=#333333;fontStyle=1;align=left;spacing=0;strokeColor=#248814;strokeOpacity=100;fillOpacity=0;fillColor=#000000;strokeWidth=1.5;" parent="pj1l9u-Ld7OoOsmG_GXO-18" vertex="1">
          <mxGeometry width="1260" height="705" as="geometry" />
        </mxCell>
        <UserObject AWS_Account_ID="" label="&lt;div style=&quot;display: flex ; justify-content: center ; text-align: center ; align-items: baseline ; font-size: 0 ; line-height: 1.25 ; margin-top: -2px&quot;&gt;&lt;span&gt;&lt;span style=&quot;font-size: 13.3px ; color: rgb(51 , 51 , 51) ; font-weight: bold ; line-height: 2.4&quot;&gt;VPC&lt;/span&gt;&lt;/span&gt;&lt;/div&gt;" Instance_Tenancy="default" CIDR_Block="" Region="eu-west-1" Type="Virtual Private Cloud" VPC_ID="" id="pj1l9u-Ld7OoOsmG_GXO-20">
          <mxCell style="html=1;overflow=block;blockSpacing=1;whiteSpace=wrap;shape=mxgraph.aws4.group;grIcon=mxgraph.aws4.group_vpc;verticalAlign=top;align=left;spacingLeft=30;fillOpacity=100;fontColor=#2C8723;fillColor=none;whiteSpace=wrap;fontSize=13;spacing=0;strokeColor=#248814;strokeOpacity=100;strokeWidth=1.5;part=1;" parent="pj1l9u-Ld7OoOsmG_GXO-19" vertex="1">
            <mxGeometry width="1260" height="705" as="geometry" />
          </mxCell>
        </UserObject>
        <mxCell id="pj1l9u-Ld7OoOsmG_GXO-21" value="VPC Services" style="" parent="pj1l9u-Ld7OoOsmG_GXO-0" />
        <mxCell id="pj1l9u-Ld7OoOsmG_GXO-23" value="VPC Flow Logs" style="sketch=0;outlineConnect=0;fontColor=#232F3E;gradientColor=none;fillColor=#4D27AA;strokeColor=none;dashed=0;verticalLabelPosition=bottom;verticalAlign=top;align=center;html=1;fontSize=12;fontStyle=0;aspect=fixed;pointerEvents=1;shape=mxgraph.aws4.flow_logs;" parent="pj1l9u-Ld7OoOsmG_GXO-21" vertex="1">
          <mxGeometry x="210" y="-637" width="30" height="30" as="geometry" />
        </mxCell>
        <mxCell id="pj1l9u-Ld7OoOsmG_GXO-24" value="NAT GW" style="locked=1;" parent="pj1l9u-Ld7OoOsmG_GXO-0" />
        <UserObject AWS_Account_ID="" label="NAT gateway" Region="eu-west-1" Availability_Zone="eu-west-1d" Type="NAT Gateway" VPC_ID="" id="pj1l9u-Ld7OoOsmG_GXO-25">
          <mxCell style="html=1;overflow=block;blockSpacing=1;whiteSpace=wrap;shape=mxgraph.aws4.nat_gateway;labelPosition=center;verticalLabelPosition=bottom;align=center;verticalAlign=top;strokeColor=none;whiteSpace=wrap;fontSize=13.3;fontColor=#666666;spacing=0;strokeOpacity=0;fillColor=#693cc5;strokeWidth=1.5;" parent="pj1l9u-Ld7OoOsmG_GXO-24" vertex="1">
            <mxGeometry x="230" y="-46" width="30" height="30" as="geometry" />
          </mxCell>
        </UserObject>
        <UserObject AWS_Account_ID="" label="NAT gateway" Availability_Zone="eu-west-1a" Region="eu-west-1" Type="NAT Gateway" VPC_ID="" id="pj1l9u-Ld7OoOsmG_GXO-26">
          <mxCell style="html=1;overflow=block;blockSpacing=1;whiteSpace=wrap;shape=mxgraph.aws4.nat_gateway;labelPosition=center;verticalLabelPosition=bottom;align=center;verticalAlign=top;strokeColor=none;whiteSpace=wrap;fontSize=13.3;fontColor=#666666;spacing=0;strokeOpacity=0;fillColor=#693cc5;strokeWidth=1.5;" parent="pj1l9u-Ld7OoOsmG_GXO-24" vertex="1">
            <mxGeometry x="230" y="-526" width="30" height="30" as="geometry" />
          </mxCell>
        </UserObject>
        <UserObject AWS_Account_ID="" label="NAT gateway" Region="eu-west-1" Availability_Zone="eu-west-1b" Type="NAT Gateway" VPC_ID="" id="pj1l9u-Ld7OoOsmG_GXO-27">
          <mxCell style="html=1;overflow=block;blockSpacing=1;whiteSpace=wrap;shape=mxgraph.aws4.nat_gateway;labelPosition=center;verticalLabelPosition=bottom;align=center;verticalAlign=top;strokeColor=none;whiteSpace=wrap;fontSize=13.3;fontColor=#666666;spacing=0;strokeOpacity=0;fillColor=#693cc5;strokeWidth=1.5;" parent="pj1l9u-Ld7OoOsmG_GXO-24" vertex="1">
            <mxGeometry x="230" y="-376" width="30" height="30" as="geometry" />
          </mxCell>
        </UserObject>
        <UserObject AWS_Account_ID="" label="Internet gateway" Region="eu-west-1" Type="Internet Gateway" VPC_ID="" id="pj1l9u-Ld7OoOsmG_GXO-28">
          <mxCell style="html=1;overflow=block;blockSpacing=1;whiteSpace=wrap;shape=mxgraph.aws4.internet_gateway;labelPosition=center;verticalLabelPosition=bottom;align=center;verticalAlign=top;strokeColor=none;whiteSpace=wrap;fontSize=13.3;fontColor=#666666;spacing=0;strokeOpacity=0;fillColor=#693cc5;strokeWidth=1.5;" parent="pj1l9u-Ld7OoOsmG_GXO-24" vertex="1">
            <mxGeometry x="95" y="-376" width="30" height="30" as="geometry" />
          </mxCell>
        </UserObject>
        <UserObject AWS_Account_ID="" label="NAT gateway" Region="eu-west-1" Availability_Zone="eu-west-1c" Type="NAT Gateway" VPC_ID="" id="pj1l9u-Ld7OoOsmG_GXO-29">
          <mxCell style="html=1;overflow=block;blockSpacing=1;whiteSpace=wrap;shape=mxgraph.aws4.nat_gateway;labelPosition=center;verticalLabelPosition=bottom;align=center;verticalAlign=top;strokeColor=none;whiteSpace=wrap;fontSize=13.3;fontColor=#666666;spacing=0;strokeOpacity=0;fillColor=#693cc5;strokeWidth=1.5;" parent="pj1l9u-Ld7OoOsmG_GXO-24" vertex="1">
            <mxGeometry x="230" y="-211" width="30" height="30" as="geometry" />
          </mxCell>
        </UserObject>
        <UserObject AWS_Account_ID="" label="" Availability_Zone="eu-west-1a" Region="eu-west-1" VPC_ID="" id="pj1l9u-Ld7OoOsmG_GXO-30">
          <mxCell style="html=1;jettySize=18;whiteSpace=wrap;fontSize=13;strokeColor=#693cc5;strokeOpacity=100;strokeWidth=0.8;rounded=1;arcSize=24;edgeStyle=orthogonalEdgeStyle;startArrow=none;;endArrow=none;;exitX=1;exitY=0.5;exitPerimeter=0;entryX=0;entryY=0.5;entryPerimeter=0;" parent="pj1l9u-Ld7OoOsmG_GXO-24" source="pj1l9u-Ld7OoOsmG_GXO-28" target="pj1l9u-Ld7OoOsmG_GXO-26" edge="1">
            <mxGeometry x="95" y="-526" width="100" height="100" as="geometry">
              <Array as="points" />
            </mxGeometry>
          </mxCell>
        </UserObject>
        <UserObject AWS_Account_ID="" label="" Availability_Zone="eu-west-1b" Region="eu-west-1" id="pj1l9u-Ld7OoOsmG_GXO-31">
          <mxCell style="html=1;jettySize=18;whiteSpace=wrap;fontSize=13;strokeColor=#693cc5;strokeOpacity=100;strokeWidth=0.8;rounded=1;arcSize=24;edgeStyle=orthogonalEdgeStyle;startArrow=none;;endArrow=none;;exitX=0;exitY=0.5;exitPerimeter=0;entryX=1;entryY=0.5;entryPerimeter=0;" parent="pj1l9u-Ld7OoOsmG_GXO-24" source="pj1l9u-Ld7OoOsmG_GXO-27" target="pj1l9u-Ld7OoOsmG_GXO-28" edge="1">
            <mxGeometry x="95" y="-526" width="100" height="100" as="geometry">
              <Array as="points" />
            </mxGeometry>
          </mxCell>
        </UserObject>
        <UserObject AWS_Account_ID="" label="" Availability_Zone="eu-west-1c" Region="eu-west-1" id="pj1l9u-Ld7OoOsmG_GXO-32">
          <mxCell style="html=1;jettySize=18;whiteSpace=wrap;fontSize=13;strokeColor=#693cc5;strokeOpacity=100;strokeWidth=0.8;rounded=1;arcSize=24;edgeStyle=orthogonalEdgeStyle;startArrow=none;;endArrow=none;;exitX=0;exitY=0.5;exitPerimeter=0;entryX=1;entryY=0.5;entryPerimeter=0;" parent="pj1l9u-Ld7OoOsmG_GXO-24" source="pj1l9u-Ld7OoOsmG_GXO-29" target="pj1l9u-Ld7OoOsmG_GXO-28" edge="1">
            <mxGeometry x="95" y="-526" width="100" height="100" as="geometry">
              <Array as="points" />
            </mxGeometry>
          </mxCell>
        </UserObject>
        <UserObject AWS_Account_ID="" label="" Region="eu-west-1" Availability_Zone="eu-west-1d" VPC_ID="" id="pj1l9u-Ld7OoOsmG_GXO-33">
          <mxCell style="html=1;jettySize=18;whiteSpace=wrap;fontSize=13;strokeColor=#693cc5;strokeOpacity=100;strokeWidth=0.8;rounded=1;arcSize=24;edgeStyle=orthogonalEdgeStyle;startArrow=none;;endArrow=none;;exitX=0;exitY=0.5;exitPerimeter=0;entryX=1;entryY=0.5;entryPerimeter=0;" parent="pj1l9u-Ld7OoOsmG_GXO-24" source="pj1l9u-Ld7OoOsmG_GXO-25" target="pj1l9u-Ld7OoOsmG_GXO-28" edge="1">
            <mxGeometry width="100" height="100" as="geometry" />
          </mxCell>
        </UserObject>
        <mxCell id="pj1l9u-Ld7OoOsmG_GXO-34" value="eu-west-1d future cap" style="locked=1;" parent="pj1l9u-Ld7OoOsmG_GXO-0" />
        <mxCell id="pj1l9u-Ld7OoOsmG_GXO-35" value="" style="group;dropTarget=0;" parent="pj1l9u-Ld7OoOsmG_GXO-34" vertex="1">
          <mxGeometry x="195" y="727" width="1454" height="200" as="geometry" />
        </mxCell>
        <UserObject AWS_Account_ID="" label="" id="pj1l9u-Ld7OoOsmG_GXO-36">
          <mxCell style="html=1;overflow=block;blockSpacing=1;whiteSpace=wrap;;whiteSpace=wrap;fontSize=13;align=center;spacing=3.8;strokeOpacity=0;fillOpacity=25;fillColor=#ffdf71;strokeWidth=1.5;" parent="pj1l9u-Ld7OoOsmG_GXO-35" vertex="1">
            <mxGeometry x="-70" y="-828" width="1388" height="172" as="geometry" />
          </mxCell>
        </UserObject>
        <UserObject AWS_Account_ID="" label="IP Ranges Allocated for future growth" id="pj1l9u-Ld7OoOsmG_GXO-37">
          <mxCell style="html=1;overflow=block;blockSpacing=1;whiteSpace=wrap;;whiteSpace=wrap;fontSize=13.3;fontColor=#333333;fontStyle=1;align=center;spacingRight=120;spacingTop=10.5;align=left;spacing=3.8;verticalAlign=top;strokeColor=none;fillOpacity=0;rotation=-90;fillColor=#ffffff;strokeWidth=0;" parent="pj1l9u-Ld7OoOsmG_GXO-35" vertex="1">
            <mxGeometry x="1179" y="-867" width="205" height="113" as="geometry" />
          </mxCell>
        </UserObject>
        <object label="eu-west-1d" id="pj1l9u-Ld7OoOsmG_GXO-38">
          <mxCell style="locked=1;" parent="pj1l9u-Ld7OoOsmG_GXO-0" />
        </object>
        <object label="" Availability_Zone="eu-west-1d" Region="eu-west-1" id="pj1l9u-Ld7OoOsmG_GXO-39">
          <mxCell style="group" parent="pj1l9u-Ld7OoOsmG_GXO-38" vertex="1" connectable="0">
            <mxGeometry x="140" y="-90" width="1270" height="150" as="geometry" />
          </mxCell>
        </object>
        <UserObject AWS_Account_ID="" label="" Name="eu-west-1a" Region="eu-west-1" Type="Availability Zone" id="pj1l9u-Ld7OoOsmG_GXO-40">
          <mxCell style="html=1;overflow=block;blockSpacing=1;whiteSpace=wrap;verticalAlign=top;fillColor=none;fillOpacity=100;dashed=1;dashPattern=5 5;fontColor=#0E82B8;strokeOpacity=100;strokeColor=#147eba;whiteSpace=wrap;fontSize=13.3;fontStyle=1;align=center;spacingRight=120;spacingTop=10.5;spacing=0;strokeWidth=1.5;" parent="pj1l9u-Ld7OoOsmG_GXO-39" vertex="1">
            <mxGeometry width="1270" height="150" as="geometry" />
          </mxCell>
        </UserObject>
        <object label="&lt;span style=&quot;color: rgb(14 , 130 , 184) ; font-family: &amp;#34;helvetica&amp;#34; ; font-size: 13px ; font-style: normal ; font-weight: 700 ; letter-spacing: normal ; text-align: center ; text-indent: 0px ; text-transform: none ; word-spacing: 0px ; display: inline ; float: none&quot;&gt;Availability Zone D&lt;/span&gt;" Availability_Zone="eu-west-1d" Region="eu-west-1" id="pj1l9u-Ld7OoOsmG_GXO-41">
          <mxCell style="text;html=1;strokeColor=none;fillColor=none;align=center;verticalAlign=middle;whiteSpace=wrap;rounded=0;rotation=270;labelBackgroundColor=none;" parent="pj1l9u-Ld7OoOsmG_GXO-39" vertex="1">
            <mxGeometry x="-50" y="70" width="130" height="20" as="geometry" />
          </mxCell>
        </object>
        <UserObject AWS_Account_ID="" label="Public Subnet 4" Availability_Zone="eu-west-1d" Subnet_Type="Public" Region="eu-west-1" Type="Subnet" VPC_ID="" id="pj1l9u-Ld7OoOsmG_GXO-44">
          <mxCell style="html=1;overflow=block;blockSpacing=1;whiteSpace=wrap;shape=mxgraph.aws4.group;grIcon=mxgraph.aws4.group_security_group;grStroke=0;verticalAlign=top;align=left;spacingLeft=30;strokeColor=#2C8723;fontColor=#2C8723;fillOpacity=13;fillColor=#248814;whiteSpace=wrap;fontSize=13.3;spacing=0;strokeOpacity=0;strokeWidth=1.5;part=1;" parent="pj1l9u-Ld7OoOsmG_GXO-39" vertex="1">
            <mxGeometry x="43.58823529411765" y="16" width="220" height="120" as="geometry" />
          </mxCell>
        </UserObject>
        <object label="" Availability_Zone="eu-west-1" Region="eu-west-1d" Subnet_Type="Private" Type="Subnet" VPC_ID="" id="pj1l9u-Ld7OoOsmG_GXO-45">
          <mxCell style="html=1;overflow=block;blockSpacing=1;whiteSpace=wrap;whiteSpace=wrap;fontSize=13.3;fontColor=#333333;spacing=0;verticalAlign=top;strokeOpacity=0;fillOpacity=0;fillColor=#000000;strokeWidth=1.5;" parent="pj1l9u-Ld7OoOsmG_GXO-39" vertex="1">
            <mxGeometry x="320" y="16" width="220" height="120" as="geometry" />
          </mxCell>
        </object>
        <UserObject AWS_Account_ID="" label="Web Subnet 4" Availability_Zone="eu-west-1a" Subnet_Type="Private" CIDR_Block="" Region="eu-west-1" Type="Subnet" VPC_ID="" id="pj1l9u-Ld7OoOsmG_GXO-46">
          <mxCell style="html=1;overflow=block;blockSpacing=1;whiteSpace=wrap;shape=mxgraph.aws4.group;grIcon=mxgraph.aws4.group_security_group;grStroke=0;verticalAlign=top;align=left;spacingLeft=30;strokeColor=#0E82B8;fontColor=#0E82B8;fillOpacity=13;fillColor=#147eba;whiteSpace=wrap;fontSize=13.3;spacing=0;strokeOpacity=0;strokeWidth=1.5;part=1;" parent="pj1l9u-Ld7OoOsmG_GXO-45" vertex="1">
            <mxGeometry width="220.00000000000003" height="120" as="geometry" />
          </mxCell>
        </UserObject>
        <object label="" Availability_Zone="eu-west-1d" Region="eu-west-1" Subnet_Type="Private" Type="Subnet" VPC_ID="" id="pj1l9u-Ld7OoOsmG_GXO-49">
          <mxCell style="html=1;overflow=block;blockSpacing=1;whiteSpace=wrap;whiteSpace=wrap;fontSize=13.3;fontColor=#333333;spacing=0;verticalAlign=top;strokeOpacity=0;fillOpacity=0;fillColor=#000000;strokeWidth=1.5;" parent="pj1l9u-Ld7OoOsmG_GXO-39" vertex="1">
            <mxGeometry x="600" y="16" width="220" height="120" as="geometry" />
          </mxCell>
        </object>
        <UserObject AWS_Account_ID="" label="Application Subnet 4" Availability_Zone="eu-west-1a" Subnet_Type="Private" CIDR_Block="" Region="eu-west-1" Type="Subnet" VPC_ID="" id="pj1l9u-Ld7OoOsmG_GXO-50">
          <mxCell style="html=1;overflow=block;blockSpacing=1;whiteSpace=wrap;shape=mxgraph.aws4.group;grIcon=mxgraph.aws4.group_security_group;grStroke=0;verticalAlign=top;align=left;spacingLeft=30;strokeColor=#0E82B8;fontColor=#0E82B8;fillOpacity=13;fillColor=#147eba;whiteSpace=wrap;fontSize=13.3;spacing=0;strokeOpacity=0;strokeWidth=1.5;part=1;" parent="pj1l9u-Ld7OoOsmG_GXO-49" vertex="1">
            <mxGeometry width="220.00000000000003" height="120" as="geometry" />
          </mxCell>
        </UserObject>
        <object label="" Availability_Zone="eu-west-1d" Region="eu-west-1" Subnet_Type="Private" Type="Subnet" VPC_ID="" id="pj1l9u-Ld7OoOsmG_GXO-51">
          <mxCell style="html=1;overflow=block;blockSpacing=1;whiteSpace=wrap;whiteSpace=wrap;fontSize=13.3;fontColor=#333333;spacing=0;verticalAlign=top;strokeOpacity=0;fillOpacity=0;fillColor=#000000;strokeWidth=1.5;" parent="pj1l9u-Ld7OoOsmG_GXO-39" vertex="1">
            <mxGeometry x="880" y="16" width="220" height="120" as="geometry" />
          </mxCell>
        </object>
        <UserObject AWS_Account_ID="" label="Data Subnet 4" Availability_Zone="eu-west-1a" Subnet_Type="Private" CIDR_Block="" Region="eu-west-1" Type="Subnet" VPC_ID="" id="pj1l9u-Ld7OoOsmG_GXO-52">
          <mxCell style="html=1;overflow=block;blockSpacing=1;whiteSpace=wrap;shape=mxgraph.aws4.group;grIcon=mxgraph.aws4.group_security_group;grStroke=0;verticalAlign=top;align=left;spacingLeft=30;strokeColor=#0E82B8;fontColor=#0E82B8;fillOpacity=13;fillColor=#147eba;whiteSpace=wrap;fontSize=13.3;spacing=0;strokeOpacity=0;strokeWidth=1.5;part=1;" parent="pj1l9u-Ld7OoOsmG_GXO-51" vertex="1">
            <mxGeometry width="220.00000000000003" height="120" as="geometry" />
          </mxCell>
        </UserObject>
        <object label="eu-west-1c" id="pj1l9u-Ld7OoOsmG_GXO-53">
          <mxCell style="locked=1;" parent="pj1l9u-Ld7OoOsmG_GXO-0" />
        </object>
        <object label="" Availability_Zone="eu-west-1c" Region="eu-west-1" id="pj1l9u-Ld7OoOsmG_GXO-54">
          <mxCell style="group" parent="pj1l9u-Ld7OoOsmG_GXO-53" vertex="1" connectable="0">
            <mxGeometry x="140" y="-256" width="1270" height="150" as="geometry" />
          </mxCell>
        </object>
        <UserObject AWS_Account_ID="" label="" Name="eu-west-1a" Region="eu-west-1" Type="Availability Zone" id="pj1l9u-Ld7OoOsmG_GXO-55">
          <mxCell style="html=1;overflow=block;blockSpacing=1;whiteSpace=wrap;verticalAlign=top;fillColor=none;fillOpacity=100;dashed=1;dashPattern=5 5;fontColor=#0E82B8;strokeOpacity=100;strokeColor=#147eba;whiteSpace=wrap;fontSize=13.3;fontStyle=1;align=center;spacingRight=120;spacingTop=10.5;spacing=0;strokeWidth=1.5;" parent="pj1l9u-Ld7OoOsmG_GXO-54" vertex="1">
            <mxGeometry width="1270" height="150" as="geometry" />
          </mxCell>
        </UserObject>
        <object label="&lt;span style=&quot;color: rgb(14 , 130 , 184) ; font-family: &amp;#34;helvetica&amp;#34; ; font-size: 13px ; font-style: normal ; font-weight: 700 ; letter-spacing: normal ; text-align: center ; text-indent: 0px ; text-transform: none ; word-spacing: 0px ; display: inline ; float: none&quot;&gt;Availability Zone C&lt;/span&gt;" Availability_Zone="eu-west-1c" Region="eu-west-1" id="pj1l9u-Ld7OoOsmG_GXO-56">
          <mxCell style="text;html=1;strokeColor=none;fillColor=none;align=center;verticalAlign=middle;whiteSpace=wrap;rounded=0;rotation=270;labelBackgroundColor=none;" parent="pj1l9u-Ld7OoOsmG_GXO-54" vertex="1">
            <mxGeometry x="-50" y="70" width="130" height="20" as="geometry" />
          </mxCell>
        </object>
        <UserObject AWS_Account_ID="" label="Public Subnet 3" Availability_Zone="eu-west-1c" Subnet_Type="Public" Region="eu-west-1" Type="Subnet" VPC_ID="" id="pj1l9u-Ld7OoOsmG_GXO-59">
          <mxCell style="html=1;overflow=block;blockSpacing=1;whiteSpace=wrap;shape=mxgraph.aws4.group;grIcon=mxgraph.aws4.group_security_group;grStroke=0;verticalAlign=top;align=left;spacingLeft=30;strokeColor=#2C8723;fontColor=#2C8723;fillOpacity=13;fillColor=#248814;whiteSpace=wrap;fontSize=13.3;spacing=0;strokeOpacity=0;strokeWidth=1.5;part=1;" parent="pj1l9u-Ld7OoOsmG_GXO-54" vertex="1">
            <mxGeometry x="43.58823529411765" y="16" width="220" height="120" as="geometry" />
          </mxCell>
        </UserObject>
        <object label="" Availability_Zone="eu-west-1" Region="eu-west-1c" Subnet_Type="Private" Type="Subnet" VPC_ID="" id="pj1l9u-Ld7OoOsmG_GXO-60">
          <mxCell style="html=1;overflow=block;blockSpacing=1;whiteSpace=wrap;whiteSpace=wrap;fontSize=13.3;fontColor=#333333;spacing=0;verticalAlign=top;strokeOpacity=0;fillOpacity=0;fillColor=#000000;strokeWidth=1.5;" parent="pj1l9u-Ld7OoOsmG_GXO-54" vertex="1">
            <mxGeometry x="320" y="16" width="220" height="120" as="geometry" />
          </mxCell>
        </object>
        <UserObject AWS_Account_ID="" label="Web Subnet 3" Availability_Zone="eu-west-1a" Subnet_Type="Private" CIDR_Block="" Region="eu-west-1" Type="Subnet" VPC_ID="" id="pj1l9u-Ld7OoOsmG_GXO-61">
          <mxCell style="html=1;overflow=block;blockSpacing=1;whiteSpace=wrap;shape=mxgraph.aws4.group;grIcon=mxgraph.aws4.group_security_group;grStroke=0;verticalAlign=top;align=left;spacingLeft=30;strokeColor=#0E82B8;fontColor=#0E82B8;fillOpacity=13;fillColor=#147eba;whiteSpace=wrap;fontSize=13.3;spacing=0;strokeOpacity=0;strokeWidth=1.5;part=1;" parent="pj1l9u-Ld7OoOsmG_GXO-60" vertex="1">
            <mxGeometry width="220.00000000000003" height="120" as="geometry" />
          </mxCell>
        </UserObject>
        <object label="" Availability_Zone="eu-west-1c" Region="eu-west-1" Subnet_Type="Private" Type="Subnet" VPC_ID="" id="pj1l9u-Ld7OoOsmG_GXO-64">
          <mxCell style="html=1;overflow=block;blockSpacing=1;whiteSpace=wrap;whiteSpace=wrap;fontSize=13.3;fontColor=#333333;spacing=0;verticalAlign=top;strokeOpacity=0;fillOpacity=0;fillColor=#000000;strokeWidth=1.5;" parent="pj1l9u-Ld7OoOsmG_GXO-54" vertex="1">
            <mxGeometry x="600" y="16" width="180" height="120" as="geometry" />
          </mxCell>
        </object>
        <UserObject AWS_Account_ID="" label="Application Subnet 3" Availability_Zone="eu-west-1a" Subnet_Type="Private" CIDR_Block="" Region="eu-west-1" Type="Subnet" VPC_ID="" id="pj1l9u-Ld7OoOsmG_GXO-65">
          <mxCell style="html=1;overflow=block;blockSpacing=1;whiteSpace=wrap;shape=mxgraph.aws4.group;grIcon=mxgraph.aws4.group_security_group;grStroke=0;verticalAlign=top;align=left;spacingLeft=30;strokeColor=#0E82B8;fontColor=#0E82B8;fillOpacity=13;fillColor=#147eba;whiteSpace=wrap;fontSize=13.3;spacing=0;strokeOpacity=0;strokeWidth=1.5;part=1;" parent="pj1l9u-Ld7OoOsmG_GXO-64" vertex="1">
            <mxGeometry width="220" height="120" as="geometry" />
          </mxCell>
        </UserObject>
        <object label="" Availability_Zone="eu-west-1c" Region="eu-west-1" Subnet_Type="Private" Type="Subnet" VPC_ID="" id="pj1l9u-Ld7OoOsmG_GXO-66">
          <mxCell style="html=1;overflow=block;blockSpacing=1;whiteSpace=wrap;whiteSpace=wrap;fontSize=13.3;fontColor=#333333;spacing=0;verticalAlign=top;strokeOpacity=0;fillOpacity=0;fillColor=#000000;strokeWidth=1.5;" parent="pj1l9u-Ld7OoOsmG_GXO-54" vertex="1">
            <mxGeometry x="880" y="16" width="220" height="120" as="geometry" />
          </mxCell>
        </object>
        <UserObject AWS_Account_ID="" label="Data Subnet 3" Availability_Zone="eu-west-1a" Subnet_Type="Private" CIDR_Block="" Region="eu-west-1" Type="Subnet" VPC_ID="" id="pj1l9u-Ld7OoOsmG_GXO-67">
          <mxCell style="html=1;overflow=block;blockSpacing=1;whiteSpace=wrap;shape=mxgraph.aws4.group;grIcon=mxgraph.aws4.group_security_group;grStroke=0;verticalAlign=top;align=left;spacingLeft=30;strokeColor=#0E82B8;fontColor=#0E82B8;fillOpacity=13;fillColor=#147eba;whiteSpace=wrap;fontSize=13.3;spacing=0;strokeOpacity=0;strokeWidth=1.5;part=1;" parent="pj1l9u-Ld7OoOsmG_GXO-66" vertex="1">
            <mxGeometry width="220.00000000000003" height="120" as="geometry" />
          </mxCell>
        </UserObject>
        <mxCell id="pj1l9u-Ld7OoOsmG_GXO-68" value="eu-west-1b" style="locked=1;" parent="pj1l9u-Ld7OoOsmG_GXO-0" />
        <object label="" Availability_Zone="eu-west-1b" Region="eu-west-1" id="pj1l9u-Ld7OoOsmG_GXO-69">
          <mxCell style="group" parent="pj1l9u-Ld7OoOsmG_GXO-68" vertex="1" connectable="0">
            <mxGeometry x="140" y="-422" width="1270" height="150" as="geometry" />
          </mxCell>
        </object>
        <UserObject AWS_Account_ID="" label="" Name="eu-west-1a" Region="eu-west-1" Type="Availability Zone" id="pj1l9u-Ld7OoOsmG_GXO-70">
          <mxCell style="html=1;overflow=block;blockSpacing=1;whiteSpace=wrap;verticalAlign=top;fillColor=none;fillOpacity=100;dashed=1;dashPattern=5 5;fontColor=#0E82B8;strokeOpacity=100;strokeColor=#147eba;whiteSpace=wrap;fontSize=13.3;fontStyle=1;align=center;spacingRight=120;spacingTop=10.5;spacing=0;strokeWidth=1.5;" parent="pj1l9u-Ld7OoOsmG_GXO-69" vertex="1">
            <mxGeometry width="1270" height="150" as="geometry" />
          </mxCell>
        </UserObject>
        <object label="&lt;span style=&quot;color: rgb(14 , 130 , 184) ; font-family: &amp;#34;helvetica&amp;#34; ; font-size: 13px ; font-style: normal ; font-weight: 700 ; letter-spacing: normal ; text-align: center ; text-indent: 0px ; text-transform: none ; word-spacing: 0px ; display: inline ; float: none&quot;&gt;Availability Zone B&lt;/span&gt;" Availability_Zone="eu-west-1b" Region="eu-west-1" id="pj1l9u-Ld7OoOsmG_GXO-71">
          <mxCell style="text;html=1;strokeColor=none;fillColor=none;align=center;verticalAlign=middle;whiteSpace=wrap;rounded=0;rotation=270;labelBackgroundColor=none;" parent="pj1l9u-Ld7OoOsmG_GXO-69" vertex="1">
            <mxGeometry x="-50" y="70" width="130" height="20" as="geometry" />
          </mxCell>
        </object>
        <UserObject AWS_Account_ID="" label="Public Subnet 2" Availability_Zone="eu-west-1b" Subnet_Type="Public" Region="eu-west-1" Type="Subnet" VPC_ID="" id="pj1l9u-Ld7OoOsmG_GXO-74">
          <mxCell style="html=1;overflow=block;blockSpacing=1;whiteSpace=wrap;shape=mxgraph.aws4.group;grIcon=mxgraph.aws4.group_security_group;grStroke=0;verticalAlign=top;align=left;spacingLeft=30;strokeColor=#2C8723;fontColor=#2C8723;fillOpacity=13;fillColor=#248814;whiteSpace=wrap;fontSize=13.3;spacing=0;strokeOpacity=0;strokeWidth=1.5;part=1;" parent="pj1l9u-Ld7OoOsmG_GXO-69" vertex="1">
            <mxGeometry x="43.58823529411765" y="16" width="220" height="120" as="geometry" />
          </mxCell>
        </UserObject>
        <object label="" Availability_Zone="eu-west-1" Region="eu-west-1b" Subnet_Type="Private" Type="Subnet" VPC_ID="" id="pj1l9u-Ld7OoOsmG_GXO-75">
          <mxCell style="html=1;overflow=block;blockSpacing=1;whiteSpace=wrap;whiteSpace=wrap;fontSize=13.3;fontColor=#333333;spacing=0;verticalAlign=top;strokeOpacity=0;fillOpacity=0;fillColor=#000000;strokeWidth=1.5;" parent="pj1l9u-Ld7OoOsmG_GXO-69" vertex="1">
            <mxGeometry x="320" y="16" width="220" height="120" as="geometry" />
          </mxCell>
        </object>
        <UserObject AWS_Account_ID="" label="Web Subnet 2" Availability_Zone="eu-west-1a" Subnet_Type="Private" CIDR_Block="" Region="eu-west-1" Type="Subnet" VPC_ID="" id="pj1l9u-Ld7OoOsmG_GXO-76">
          <mxCell style="html=1;overflow=block;blockSpacing=1;whiteSpace=wrap;shape=mxgraph.aws4.group;grIcon=mxgraph.aws4.group_security_group;grStroke=0;verticalAlign=top;align=left;spacingLeft=30;strokeColor=#0E82B8;fontColor=#0E82B8;fillOpacity=13;fillColor=#147eba;whiteSpace=wrap;fontSize=13.3;spacing=0;strokeOpacity=0;strokeWidth=1.5;part=1;" parent="pj1l9u-Ld7OoOsmG_GXO-75" vertex="1">
            <mxGeometry width="220.00000000000003" height="120" as="geometry" />
          </mxCell>
        </UserObject>
        <object label="" Availability_Zone="eu-west-1b" Region="eu-west-1" Subnet_Type="Private" Type="Subnet" VPC_ID="" id="pj1l9u-Ld7OoOsmG_GXO-79">
          <mxCell style="html=1;overflow=block;blockSpacing=1;whiteSpace=wrap;whiteSpace=wrap;fontSize=13.3;fontColor=#333333;spacing=0;verticalAlign=top;strokeOpacity=0;fillOpacity=0;fillColor=#000000;strokeWidth=1.5;" parent="pj1l9u-Ld7OoOsmG_GXO-69" vertex="1">
            <mxGeometry x="600" y="16" width="220" height="120" as="geometry" />
          </mxCell>
        </object>
        <UserObject AWS_Account_ID="" label="Application Subnet 2" Availability_Zone="eu-west-1a" Subnet_Type="Private" CIDR_Block="" Region="eu-west-1" Type="Subnet" VPC_ID="" id="pj1l9u-Ld7OoOsmG_GXO-80">
          <mxCell style="html=1;overflow=block;blockSpacing=1;whiteSpace=wrap;shape=mxgraph.aws4.group;grIcon=mxgraph.aws4.group_security_group;grStroke=0;verticalAlign=top;align=left;spacingLeft=30;strokeColor=#0E82B8;fontColor=#0E82B8;fillOpacity=13;fillColor=#147eba;whiteSpace=wrap;fontSize=13.3;spacing=0;strokeOpacity=0;strokeWidth=1.5;part=1;" parent="pj1l9u-Ld7OoOsmG_GXO-79" vertex="1">
            <mxGeometry width="220.00000000000003" height="120" as="geometry" />
          </mxCell>
        </UserObject>
        <object label="" Availability_Zone="eu-west-1b" Region="eu-west-1" Subnet_Type="Private" Type="Subnet" VPC_ID="" id="pj1l9u-Ld7OoOsmG_GXO-81">
          <mxCell style="html=1;overflow=block;blockSpacing=1;whiteSpace=wrap;whiteSpace=wrap;fontSize=13.3;fontColor=#333333;spacing=0;verticalAlign=top;strokeOpacity=0;fillOpacity=0;fillColor=#000000;strokeWidth=1.5;" parent="pj1l9u-Ld7OoOsmG_GXO-69" vertex="1">
            <mxGeometry x="880" y="16" width="220" height="120" as="geometry" />
          </mxCell>
        </object>
        <UserObject AWS_Account_ID="" label="Data Subnet 2" Availability_Zone="eu-west-1a" Subnet_Type="Private" CIDR_Block="" Region="eu-west-1" Type="Subnet" VPC_ID="" id="pj1l9u-Ld7OoOsmG_GXO-82">
          <mxCell style="html=1;overflow=block;blockSpacing=1;whiteSpace=wrap;shape=mxgraph.aws4.group;grIcon=mxgraph.aws4.group_security_group;grStroke=0;verticalAlign=top;align=left;spacingLeft=30;strokeColor=#0E82B8;fontColor=#0E82B8;fillOpacity=13;fillColor=#147eba;whiteSpace=wrap;fontSize=13.3;spacing=0;strokeOpacity=0;strokeWidth=1.5;part=1;" parent="pj1l9u-Ld7OoOsmG_GXO-81" vertex="1">
            <mxGeometry width="220.00000000000003" height="120" as="geometry" />
          </mxCell>
        </UserObject>
        <mxCell id="pj1l9u-Ld7OoOsmG_GXO-83" value="eu-west-1a" style="" parent="pj1l9u-Ld7OoOsmG_GXO-0" />
        <UserObject AWS_Account_ID="" label="" Name="eu-west-1a" Region="eu-west-1" Type="Availability Zone" id="pj1l9u-Ld7OoOsmG_GXO-84">
          <mxCell style="html=1;overflow=block;blockSpacing=1;whiteSpace=wrap;verticalAlign=top;fillColor=none;fillOpacity=100;dashed=1;dashPattern=5 5;fontColor=#0E82B8;strokeOpacity=100;strokeColor=#147eba;whiteSpace=wrap;fontSize=13.3;fontStyle=1;align=center;spacingRight=120;spacingTop=10.5;spacing=0;strokeWidth=1.5;" parent="pj1l9u-Ld7OoOsmG_GXO-83" vertex="1">
            <mxGeometry x="140" y="-586" width="1270" height="150" as="geometry" />
          </mxCell>
        </UserObject>
        <object label="" Availability_Zone="eu-west-1a" Region="eu-west-1" VPC_ID="" id="pj1l9u-Ld7OoOsmG_GXO-85">
          <mxCell style="group;dropTarget=0;horizontal=1;direction=east;" parent="pj1l9u-Ld7OoOsmG_GXO-83" vertex="1">
            <mxGeometry x="140" y="-586" width="1315" height="150" as="geometry" />
          </mxCell>
        </object>
        <mxCell id="pj1l9u-Ld7OoOsmG_GXO-86" value="" style="html=1;overflow=block;blockSpacing=1;whiteSpace=wrap;whiteSpace=wrap;fontSize=13.3;fontColor=#333333;spacing=0;verticalAlign=top;strokeOpacity=0;fillOpacity=0;fillColor=#000000;strokeWidth=1.5;container=0;" parent="pj1l9u-Ld7OoOsmG_GXO-85" vertex="1">
          <mxGeometry x="43.588235294117645" y="16" width="1271.4117647058824" height="134" as="geometry" />
        </mxCell>
        <UserObject AWS_Account_ID="" label="Public Subnet 1" Availability_Zone="eu-west-1a" Subnet_Type="Public" Region="eu-west-1" Type="Subnet" VPC_ID="" id="pj1l9u-Ld7OoOsmG_GXO-87">
          <mxCell style="html=1;overflow=block;blockSpacing=1;whiteSpace=wrap;shape=mxgraph.aws4.group;grIcon=mxgraph.aws4.group_security_group;grStroke=0;verticalAlign=top;align=left;spacingLeft=30;strokeColor=#2C8723;fontColor=#2C8723;fillOpacity=13;fillColor=#248814;whiteSpace=wrap;fontSize=13.3;spacing=0;strokeOpacity=0;strokeWidth=1.5;part=1;" parent="pj1l9u-Ld7OoOsmG_GXO-85" vertex="1">
            <mxGeometry x="43.58823529411765" y="16" width="220" height="120" as="geometry" />
          </mxCell>
        </UserObject>
        <object label="" Availability_Zone="eu-west-1a" Region="eu-west-1" Subnet_Type="Private" Type="Subnet" VPC_ID="" id="pj1l9u-Ld7OoOsmG_GXO-88">
          <mxCell style="html=1;overflow=block;blockSpacing=1;whiteSpace=wrap;whiteSpace=wrap;fontSize=13.3;fontColor=#333333;spacing=0;verticalAlign=top;strokeOpacity=0;fillOpacity=0;fillColor=#000000;strokeWidth=1.5;" parent="pj1l9u-Ld7OoOsmG_GXO-85" vertex="1">
            <mxGeometry x="320" y="16" width="220" height="120" as="geometry" />
          </mxCell>
        </object>
        <UserObject AWS_Account_ID="" label="Web Subnet 1" Availability_Zone="eu-west-1a" Subnet_Type="Private" CIDR_Block="" Region="eu-west-1" Type="Subnet" VPC_ID="" id="pj1l9u-Ld7OoOsmG_GXO-89">
          <mxCell style="html=1;overflow=block;blockSpacing=1;whiteSpace=wrap;shape=mxgraph.aws4.group;grIcon=mxgraph.aws4.group_security_group;grStroke=0;verticalAlign=top;align=left;spacingLeft=30;strokeColor=#0E82B8;fontColor=#0E82B8;fillOpacity=13;fillColor=#147eba;whiteSpace=wrap;fontSize=13.3;spacing=0;strokeOpacity=0;strokeWidth=1.5;part=1;" parent="pj1l9u-Ld7OoOsmG_GXO-88" vertex="1">
            <mxGeometry width="220.00000000000003" height="120" as="geometry" />
          </mxCell>
        </UserObject>
        <object label="" Availability_Zone="eu-west-1a" Region="eu-west-1" Subnet_Type="Private" Type="Subnet" VPC_ID="" id="pj1l9u-Ld7OoOsmG_GXO-92">
          <mxCell style="html=1;overflow=block;blockSpacing=1;whiteSpace=wrap;whiteSpace=wrap;fontSize=13.3;fontColor=#333333;spacing=0;verticalAlign=top;strokeOpacity=0;fillOpacity=0;fillColor=#000000;strokeWidth=1.5;" parent="pj1l9u-Ld7OoOsmG_GXO-85" vertex="1">
            <mxGeometry x="600" y="16" width="220" height="120" as="geometry" />
          </mxCell>
        </object>
        <UserObject AWS_Account_ID="" label="Application Subnet 1" Availability_Zone="eu-west-1a" Subnet_Type="Private" CIDR_Block="" Region="eu-west-1" Type="Subnet" VPC_ID="" id="pj1l9u-Ld7OoOsmG_GXO-93">
          <mxCell style="html=1;overflow=block;blockSpacing=1;whiteSpace=wrap;shape=mxgraph.aws4.group;grIcon=mxgraph.aws4.group_security_group;grStroke=0;verticalAlign=top;align=left;spacingLeft=30;strokeColor=#0E82B8;fontColor=#0E82B8;fillOpacity=13;fillColor=#147eba;whiteSpace=wrap;fontSize=13.3;spacing=0;strokeOpacity=0;strokeWidth=1.5;part=1;" parent="pj1l9u-Ld7OoOsmG_GXO-92" vertex="1">
            <mxGeometry width="220.00000000000003" height="120" as="geometry" />
          </mxCell>
        </UserObject>
        <object label="" Availability_Zone="eu-west-1a" Region="eu-west-1" Subnet_Type="Private" Type="Subnet" VPC_ID="" id="pj1l9u-Ld7OoOsmG_GXO-94">
          <mxCell style="html=1;overflow=block;blockSpacing=1;whiteSpace=wrap;whiteSpace=wrap;fontSize=13.3;fontColor=#333333;spacing=0;verticalAlign=top;strokeOpacity=0;fillOpacity=0;fillColor=#000000;strokeWidth=1.5;" parent="pj1l9u-Ld7OoOsmG_GXO-85" vertex="1">
            <mxGeometry x="880" y="16" width="220" height="120" as="geometry" />
          </mxCell>
        </object>
        <UserObject AWS_Account_ID="" label="Data Subnet 1" Availability_Zone="eu-west-1a" Subnet_Type="Private" CIDR_Block="" Region="eu-west-1" Type="Subnet" VPC_ID="" id="pj1l9u-Ld7OoOsmG_GXO-95">
          <mxCell style="html=1;overflow=block;blockSpacing=1;whiteSpace=wrap;shape=mxgraph.aws4.group;grIcon=mxgraph.aws4.group_security_group;grStroke=0;verticalAlign=top;align=left;spacingLeft=30;strokeColor=#0E82B8;fontColor=#0E82B8;fillOpacity=13;fillColor=#147eba;whiteSpace=wrap;fontSize=13.3;spacing=0;strokeOpacity=0;strokeWidth=1.5;part=1;" parent="pj1l9u-Ld7OoOsmG_GXO-94" vertex="1">
            <mxGeometry width="220.00000000000003" height="120" as="geometry" />
          </mxCell>
        </UserObject>
        <object label="&lt;span style=&quot;color: rgb(14 , 130 , 184) ; font-family: &amp;#34;helvetica&amp;#34; ; font-size: 13px ; font-style: normal ; font-weight: 700 ; letter-spacing: normal ; text-align: center ; text-indent: 0px ; text-transform: none ; word-spacing: 0px ; display: inline ; float: none&quot;&gt;Availability Zone A&lt;/span&gt;" Availability_Zone="eu-west-1a" Region="eu-west-1" VPC_ID="" id="pj1l9u-Ld7OoOsmG_GXO-96">
          <mxCell style="text;html=1;strokeColor=none;fillColor=none;align=center;verticalAlign=middle;whiteSpace=wrap;rounded=0;rotation=270;labelBackgroundColor=none;" parent="pj1l9u-Ld7OoOsmG_GXO-83" vertex="1">
            <mxGeometry x="90" y="-516" width="130" height="20" as="geometry" />
          </mxCell>
        </object>
        <mxCell id="pj1l9u-Ld7OoOsmG_GXO-99" value="Notes" style="locked=1;" parent="pj1l9u-Ld7OoOsmG_GXO-0" visible="0" />
        <mxCell id="pj1l9u-Ld7OoOsmG_GXO-100" value="" style="group;dropTarget=0;" parent="pj1l9u-Ld7OoOsmG_GXO-99" vertex="1">
          <mxGeometry x="1590" y="-740" width="178" height="210" as="geometry" />
        </mxCell>
        <mxCell id="pj1l9u-Ld7OoOsmG_GXO-101" value="" style="group;dropTarget=0;html=1;" parent="pj1l9u-Ld7OoOsmG_GXO-100" vertex="1">
          <mxGeometry width="178" height="210" as="geometry" />
        </mxCell>
        <mxCell id="pj1l9u-Ld7OoOsmG_GXO-102" value="Required AWS Tags" style="shape=partialRectangle;html=1;whiteSpace=wrap;connectable=0;left=0;right=0;top=0;bottom=0;fillColor=#000000;strokeOpacity=0;fillOpacity=0;verticalAlign=middle;whiteSpace=wrap;fontSize=13;spacing=3.8;strokeWidth=1.5;fontSize=16.7;fontStyle=5;align=left;" parent="pj1l9u-Ld7OoOsmG_GXO-101" vertex="1">
          <mxGeometry width="177.75" height="30" as="geometry" />
        </mxCell>
        <mxCell id="pj1l9u-Ld7OoOsmG_GXO-103" value="COST-CENTRE" style="shape=partialRectangle;html=1;whiteSpace=wrap;connectable=0;left=0;right=0;top=0;bottom=0;fillColor=#000000;strokeOpacity=0;fillOpacity=0;verticalAlign=middle;whiteSpace=wrap;fontSize=13;spacing=3.8;strokeWidth=1.5;fontSize=13.3;fontColor=#000000;align=left;" parent="pj1l9u-Ld7OoOsmG_GXO-101" vertex="1">
          <mxGeometry y="30" width="177.75" height="30" as="geometry" />
        </mxCell>
        <mxCell id="pj1l9u-Ld7OoOsmG_GXO-104" value="OWNER" style="shape=partialRectangle;html=1;whiteSpace=wrap;connectable=0;left=0;right=0;top=0;bottom=0;fillColor=#000000;strokeWidth=2;strokeOpacity=0;fillOpacity=0;verticalAlign=middle;whiteSpace=wrap;fontSize=13;spacing=3.8;fontSize=13.3;align=left;" parent="pj1l9u-Ld7OoOsmG_GXO-101" vertex="1">
          <mxGeometry y="60" width="177.75" height="30" as="geometry" />
        </mxCell>
        <mxCell id="pj1l9u-Ld7OoOsmG_GXO-105" value="BUSINESS" style="shape=partialRectangle;html=1;whiteSpace=wrap;connectable=0;left=0;right=0;top=0;bottom=0;fillColor=#000000;strokeWidth=2;strokeOpacity=0;fillOpacity=0;verticalAlign=middle;whiteSpace=wrap;fontSize=13;spacing=3.8;fontSize=13.3;align=left;" parent="pj1l9u-Ld7OoOsmG_GXO-101" vertex="1">
          <mxGeometry y="90" width="177.75" height="30" as="geometry" />
        </mxCell>
        <mxCell id="pj1l9u-Ld7OoOsmG_GXO-106" value="PROJECT" style="shape=partialRectangle;html=1;whiteSpace=wrap;connectable=0;left=0;right=0;top=0;bottom=0;fillColor=#000000;strokeWidth=2;strokeOpacity=0;fillOpacity=0;verticalAlign=middle;whiteSpace=wrap;fontSize=13;spacing=3.8;fontSize=13.3;align=left;" parent="pj1l9u-Ld7OoOsmG_GXO-101" vertex="1">
          <mxGeometry y="120" width="177.75" height="30" as="geometry" />
        </mxCell>
        <mxCell id="pj1l9u-Ld7OoOsmG_GXO-107" value="SERVICE" style="shape=partialRectangle;html=1;whiteSpace=wrap;connectable=0;left=0;right=0;top=0;bottom=0;fillColor=#000000;strokeWidth=2;strokeOpacity=0;fillOpacity=0;verticalAlign=middle;whiteSpace=wrap;fontSize=13;spacing=3.8;fontSize=13.3;align=left;" parent="pj1l9u-Ld7OoOsmG_GXO-101" vertex="1">
          <mxGeometry y="150" width="177.75" height="30" as="geometry" />
        </mxCell>
        <mxCell id="pj1l9u-Ld7OoOsmG_GXO-108" value="ENVIRONMENT" style="shape=partialRectangle;html=1;whiteSpace=wrap;connectable=0;left=0;right=0;top=0;bottom=0;fillColor=#000000;strokeWidth=2;strokeOpacity=0;fillOpacity=0;verticalAlign=middle;whiteSpace=wrap;fontSize=13;spacing=3.8;fontSize=13.3;align=left;" parent="pj1l9u-Ld7OoOsmG_GXO-101" vertex="1">
          <mxGeometry y="180" width="177.75" height="30" as="geometry" />
        </mxCell>
        <mxCell id="Eo25j14j2uIU8A9BkdMR-1" value="Untitled Layer" parent="pj1l9u-Ld7OoOsmG_GXO-0" />
        <mxCell id="Eo25j14j2uIU8A9BkdMR-2" value="Text" style="text;html=1;strokeColor=none;fillColor=none;align=center;verticalAlign=middle;whiteSpace=wrap;rounded=0;" vertex="1" parent="Eo25j14j2uIU8A9BkdMR-1">
          <mxGeometry x="730" y="-320" width="60" height="30" as="geometry" />
        </mxCell>
        <mxCell id="Eo25j14j2uIU8A9BkdMR-3" value="10.9.240.0/20" style="text;html=1;strokeColor=none;fillColor=none;align=center;verticalAlign=middle;whiteSpace=wrap;rounded=0;" vertex="1" parent="Eo25j14j2uIU8A9BkdMR-1">
          <mxGeometry x="790" y="-630" width="60" height="30" as="geometry" />
        </mxCell>
        <mxCell id="Eo25j14j2uIU8A9BkdMR-4" value="10.9.240.0/25" style="text;html=1;strokeColor=none;fillColor=none;align=center;verticalAlign=middle;whiteSpace=wrap;rounded=0;" vertex="1" parent="Eo25j14j2uIU8A9BkdMR-1">
          <mxGeometry x="328" y="-480" width="60" height="30" as="geometry" />
        </mxCell>
        <mxCell id="Eo25j14j2uIU8A9BkdMR-5" value="10.9.240.128/25" style="text;html=1;strokeColor=none;fillColor=none;align=center;verticalAlign=middle;whiteSpace=wrap;rounded=0;" vertex="1" parent="Eo25j14j2uIU8A9BkdMR-1">
          <mxGeometry x="328" y="-313" width="60" height="30" as="geometry" />
        </mxCell>
        <mxCell id="Eo25j14j2uIU8A9BkdMR-6" value="10.9.241.0/25" style="text;html=1;strokeColor=none;fillColor=none;align=center;verticalAlign=middle;whiteSpace=wrap;rounded=0;" vertex="1" parent="Eo25j14j2uIU8A9BkdMR-1">
          <mxGeometry x="328" y="-150" width="60" height="30" as="geometry" />
        </mxCell>
        <mxCell id="Eo25j14j2uIU8A9BkdMR-7" value="10.9.241.0/25" style="text;html=1;strokeColor=none;fillColor=none;align=center;verticalAlign=middle;whiteSpace=wrap;rounded=0;" vertex="1" parent="Eo25j14j2uIU8A9BkdMR-1">
          <mxGeometry x="328" y="19" width="60" height="30" as="geometry" />
        </mxCell>
        <mxCell id="Eo25j14j2uIU8A9BkdMR-8" value="10.9.242.0/24" style="text;html=1;strokeColor=none;fillColor=none;align=center;verticalAlign=middle;whiteSpace=wrap;rounded=0;" vertex="1" parent="Eo25j14j2uIU8A9BkdMR-1">
          <mxGeometry x="610" y="-480" width="60" height="30" as="geometry" />
        </mxCell>
        <mxCell id="Eo25j14j2uIU8A9BkdMR-9" value="10.9.243.0/24" style="text;html=1;strokeColor=none;fillColor=none;align=center;verticalAlign=middle;whiteSpace=wrap;rounded=0;" vertex="1" parent="Eo25j14j2uIU8A9BkdMR-1">
          <mxGeometry x="610" y="-313" width="60" height="30" as="geometry" />
        </mxCell>
        <mxCell id="Eo25j14j2uIU8A9BkdMR-10" value="10.9.244.0/24" style="text;html=1;strokeColor=none;fillColor=none;align=center;verticalAlign=middle;whiteSpace=wrap;rounded=0;" vertex="1" parent="Eo25j14j2uIU8A9BkdMR-1">
          <mxGeometry x="610" y="-150" width="60" height="30" as="geometry" />
        </mxCell>
        <mxCell id="Eo25j14j2uIU8A9BkdMR-11" value="10.9.245.0/24" style="text;html=1;strokeColor=none;fillColor=none;align=center;verticalAlign=middle;whiteSpace=wrap;rounded=0;" vertex="1" parent="Eo25j14j2uIU8A9BkdMR-1">
          <mxGeometry x="610" y="19" width="60" height="30" as="geometry" />
        </mxCell>
        <mxCell id="Eo25j14j2uIU8A9BkdMR-12" value="10.9.246.0/24" style="text;html=1;strokeColor=none;fillColor=none;align=center;verticalAlign=middle;whiteSpace=wrap;rounded=0;" vertex="1" parent="Eo25j14j2uIU8A9BkdMR-1">
          <mxGeometry x="890" y="-480" width="60" height="30" as="geometry" />
        </mxCell>
        <mxCell id="Eo25j14j2uIU8A9BkdMR-13" value="10.9.247.0/24" style="text;html=1;strokeColor=none;fillColor=none;align=center;verticalAlign=middle;whiteSpace=wrap;rounded=0;" vertex="1" parent="Eo25j14j2uIU8A9BkdMR-1">
          <mxGeometry x="890" y="-313" width="60" height="30" as="geometry" />
        </mxCell>
        <mxCell id="Eo25j14j2uIU8A9BkdMR-14" value="10.9.248.0/24" style="text;html=1;strokeColor=none;fillColor=none;align=center;verticalAlign=middle;whiteSpace=wrap;rounded=0;" vertex="1" parent="Eo25j14j2uIU8A9BkdMR-1">
          <mxGeometry x="890" y="-150" width="60" height="30" as="geometry" />
        </mxCell>
        <mxCell id="Eo25j14j2uIU8A9BkdMR-15" value="10.9.249.0/24" style="text;html=1;strokeColor=none;fillColor=none;align=center;verticalAlign=middle;whiteSpace=wrap;rounded=0;" vertex="1" parent="Eo25j14j2uIU8A9BkdMR-1">
          <mxGeometry x="890" y="19" width="60" height="30" as="geometry" />
        </mxCell>
        <mxCell id="Eo25j14j2uIU8A9BkdMR-16" value="10.9.250.0/24" style="text;html=1;strokeColor=none;fillColor=none;align=center;verticalAlign=middle;whiteSpace=wrap;rounded=0;" vertex="1" parent="Eo25j14j2uIU8A9BkdMR-1">
          <mxGeometry x="1170" y="-480" width="60" height="30" as="geometry" />
        </mxCell>
        <mxCell id="Eo25j14j2uIU8A9BkdMR-17" value="10.9.251.0/24" style="text;html=1;strokeColor=none;fillColor=none;align=center;verticalAlign=middle;whiteSpace=wrap;rounded=0;" vertex="1" parent="Eo25j14j2uIU8A9BkdMR-1">
          <mxGeometry x="1170" y="-313" width="60" height="30" as="geometry" />
        </mxCell>
        <mxCell id="Eo25j14j2uIU8A9BkdMR-18" value="10.9.252.0/24" style="text;html=1;strokeColor=none;fillColor=none;align=center;verticalAlign=middle;whiteSpace=wrap;rounded=0;" vertex="1" parent="Eo25j14j2uIU8A9BkdMR-1">
          <mxGeometry x="1170" y="-150" width="60" height="30" as="geometry" />
        </mxCell>
        <mxCell id="Eo25j14j2uIU8A9BkdMR-19" value="10.9.253.0/24" style="text;html=1;strokeColor=none;fillColor=none;align=center;verticalAlign=middle;whiteSpace=wrap;rounded=0;" vertex="1" parent="Eo25j14j2uIU8A9BkdMR-1">
          <mxGeometry x="1170" y="19" width="60" height="30" as="geometry" />
        </mxCell>
      </root>
    </mxGraphModel>
  </diagram>
</mxfile>
